<mxfile host="Electron" agent="Mozilla/5.0 (Windows NT 10.0; Win64; x64) AppleWebKit/537.36 (KHTML, like Gecko) draw.io/25.0.2 Chrome/128.0.6613.186 Electron/32.2.5 Safari/537.36" version="25.0.2">
  <diagram name="Página-1" id="B_nz1HnfivrpR-ZiapC6">
    <mxGraphModel dx="4168" dy="984" grid="1" gridSize="10" guides="1" tooltips="1" connect="1" arrows="1" fold="1" page="1" pageScale="1" pageWidth="827" pageHeight="1169" math="0" shadow="0">
      <root>
        <mxCell id="0" />
        <mxCell id="1" parent="0" />
        <mxCell id="WefGPr5P4sL8wsOrdyZF-1" value="" style="rounded=0;whiteSpace=wrap;html=1;" vertex="1" parent="1">
          <mxGeometry x="-460" y="90" width="1370" height="680" as="geometry" />
        </mxCell>
        <mxCell id="WefGPr5P4sL8wsOrdyZF-2" value="Foto de Perfil" style="rounded=0;whiteSpace=wrap;html=1;" vertex="1" parent="1">
          <mxGeometry x="-370" y="210" width="420" height="360" as="geometry" />
        </mxCell>
        <mxCell id="WefGPr5P4sL8wsOrdyZF-3" value="&lt;h1 style=&quot;margin-top: 0px;&quot;&gt;Texto informativa&lt;/h1&gt;" style="text;html=1;whiteSpace=wrap;overflow=hidden;rounded=0;" vertex="1" parent="1">
          <mxGeometry x="224" y="210" width="490" height="360" as="geometry" />
        </mxCell>
        <mxCell id="WefGPr5P4sL8wsOrdyZF-4" value="" style="rounded=0;whiteSpace=wrap;html=1;" vertex="1" parent="1">
          <mxGeometry x="-460" y="890" width="1370" height="680" as="geometry" />
        </mxCell>
        <mxCell id="WefGPr5P4sL8wsOrdyZF-6" value="&lt;h1 style=&quot;margin-top: 0px;&quot;&gt;Ilustración Digital&lt;/h1&gt;" style="text;html=1;whiteSpace=wrap;overflow=hidden;rounded=0;" vertex="1" parent="1">
          <mxGeometry x="80" y="920" width="490" height="50" as="geometry" />
        </mxCell>
        <mxCell id="WefGPr5P4sL8wsOrdyZF-7" value="SEGUNDA SECCIÓN Se repite 6 veces" style="text;html=1;align=center;verticalAlign=middle;whiteSpace=wrap;rounded=0;" vertex="1" parent="1">
          <mxGeometry x="70" y="850" width="210" height="30" as="geometry" />
        </mxCell>
        <mxCell id="WefGPr5P4sL8wsOrdyZF-8" value="Image button&amp;nbsp;&lt;div&gt;&lt;br&gt;&lt;/div&gt;&lt;div&gt;Abrir modal IlustrationModal&lt;/div&gt;" style="rounded=0;whiteSpace=wrap;html=1;" vertex="1" parent="1">
          <mxGeometry x="-50" y="1020" width="510" height="230" as="geometry" />
        </mxCell>
        <mxCell id="WefGPr5P4sL8wsOrdyZF-9" value="&lt;h1 style=&quot;margin-top: 0px;&quot;&gt;Heading&lt;/h1&gt;&lt;p&gt;Lorem ipsum dolor sit amet, consectetur adipisicing elit, sed do eiusmod tempor incididunt ut labore et dolore magna aliqua.&lt;/p&gt;" style="text;html=1;whiteSpace=wrap;overflow=hidden;rounded=0;" vertex="1" parent="1">
          <mxGeometry x="-230" y="1300" width="900" height="120" as="geometry" />
        </mxCell>
        <mxCell id="WefGPr5P4sL8wsOrdyZF-10" value="" style="rounded=0;whiteSpace=wrap;html=1;" vertex="1" parent="1">
          <mxGeometry x="-1300" y="980" width="800" height="360" as="geometry" />
        </mxCell>
        <mxCell id="WefGPr5P4sL8wsOrdyZF-11" value="Imagen uno" style="rounded=0;whiteSpace=wrap;html=1;" vertex="1" parent="1">
          <mxGeometry x="-1110" y="1020" width="370" height="90" as="geometry" />
        </mxCell>
        <mxCell id="WefGPr5P4sL8wsOrdyZF-12" value="&lt;h1 style=&quot;margin-top: 0px;&quot;&gt;Heading&lt;/h1&gt;&lt;p&gt;Lorem ipsum dolor sit amet, consectetur adipisicing elit, sed do eiusmod tempor incididunt ut labore et dolore magna aliqua.&lt;/p&gt;" style="text;html=1;whiteSpace=wrap;overflow=hidden;rounded=0;" vertex="1" parent="1">
          <mxGeometry x="-1030" y="1130" width="180" height="120" as="geometry" />
        </mxCell>
        <mxCell id="WefGPr5P4sL8wsOrdyZF-13" value="Carousel" style="text;html=1;align=center;verticalAlign=middle;whiteSpace=wrap;rounded=0;" vertex="1" parent="1">
          <mxGeometry x="-970" y="980" width="60" height="30" as="geometry" />
        </mxCell>
        <mxCell id="WefGPr5P4sL8wsOrdyZF-15" value="" style="rounded=0;whiteSpace=wrap;html=1;" vertex="1" parent="1">
          <mxGeometry x="-450" y="1680" width="1370" height="680" as="geometry" />
        </mxCell>
        <mxCell id="WefGPr5P4sL8wsOrdyZF-16" value="&lt;h1 style=&quot;margin-top: 0px;&quot;&gt;Fotos de modelos&lt;/h1&gt;" style="text;html=1;whiteSpace=wrap;overflow=hidden;rounded=0;" vertex="1" parent="1">
          <mxGeometry x="-190" y="1940" width="490" height="50" as="geometry" />
        </mxCell>
        <mxCell id="WefGPr5P4sL8wsOrdyZF-17" value="Image button&amp;nbsp;&lt;div&gt;&lt;br&gt;&lt;/div&gt;&lt;div&gt;Abrir modal IlustrationModal&lt;/div&gt;" style="rounded=0;whiteSpace=wrap;html=1;" vertex="1" parent="1">
          <mxGeometry x="230" y="1840" width="510" height="230" as="geometry" />
        </mxCell>
        <mxCell id="WefGPr5P4sL8wsOrdyZF-18" value="&lt;h1 style=&quot;margin-top: 0px;&quot;&gt;Heading&lt;/h1&gt;&lt;p&gt;Lorem ipsum dolor sit amet, consectetur adipisicing elit, sed do eiusmod tempor incididunt ut labore et dolore magna aliqua.&lt;/p&gt;" style="text;html=1;whiteSpace=wrap;overflow=hidden;rounded=0;" vertex="1" parent="1">
          <mxGeometry x="-100" y="2150" width="900" height="120" as="geometry" />
        </mxCell>
        <mxCell id="WefGPr5P4sL8wsOrdyZF-23" value="" style="rounded=0;whiteSpace=wrap;html=1;" vertex="1" parent="1">
          <mxGeometry x="-1330" y="1710" width="800" height="360" as="geometry" />
        </mxCell>
        <mxCell id="WefGPr5P4sL8wsOrdyZF-24" value="Imagen uno" style="rounded=0;whiteSpace=wrap;html=1;" vertex="1" parent="1">
          <mxGeometry x="-1330" y="1770" width="230" height="90" as="geometry" />
        </mxCell>
        <mxCell id="WefGPr5P4sL8wsOrdyZF-25" value="&lt;h1 style=&quot;margin-top: 0px;&quot;&gt;Heading&lt;/h1&gt;&lt;p&gt;Lorem ipsum dolor sit amet, consectetur adipisicing elit, sed do eiusmod tempor incididunt ut labore et dolore magna aliqua.&lt;/p&gt;" style="text;html=1;whiteSpace=wrap;overflow=hidden;rounded=0;" vertex="1" parent="1">
          <mxGeometry x="-1140" y="1920" width="450" height="120" as="geometry" />
        </mxCell>
        <mxCell id="WefGPr5P4sL8wsOrdyZF-26" value="TCard por modelo&lt;br&gt;y una cada uno es un modal" style="text;html=1;align=center;verticalAlign=middle;whiteSpace=wrap;rounded=0;" vertex="1" parent="1">
          <mxGeometry x="-1000" y="1710" width="220" height="30" as="geometry" />
        </mxCell>
        <mxCell id="WefGPr5P4sL8wsOrdyZF-27" value="Imagen uno" style="rounded=0;whiteSpace=wrap;html=1;" vertex="1" parent="1">
          <mxGeometry x="-1060" y="1770" width="230" height="90" as="geometry" />
        </mxCell>
        <mxCell id="WefGPr5P4sL8wsOrdyZF-28" value="Imagen uno" style="rounded=0;whiteSpace=wrap;html=1;" vertex="1" parent="1">
          <mxGeometry x="-790" y="1770" width="230" height="90" as="geometry" />
        </mxCell>
        <mxCell id="WefGPr5P4sL8wsOrdyZF-29" value="" style="rounded=0;whiteSpace=wrap;html=1;" vertex="1" parent="1">
          <mxGeometry x="-1660" y="1520" width="320" height="110" as="geometry" />
        </mxCell>
        <mxCell id="WefGPr5P4sL8wsOrdyZF-30" value="Modal con Galeria por modelo" style="text;html=1;align=center;verticalAlign=middle;whiteSpace=wrap;rounded=0;" vertex="1" parent="1">
          <mxGeometry x="-1560" y="1550" width="60" height="30" as="geometry" />
        </mxCell>
        <mxCell id="WefGPr5P4sL8wsOrdyZF-32" value="" style="endArrow=classic;html=1;rounded=0;entryX=0.5;entryY=1;entryDx=0;entryDy=0;exitX=0;exitY=1;exitDx=0;exitDy=0;" edge="1" parent="1" source="WefGPr5P4sL8wsOrdyZF-24" target="WefGPr5P4sL8wsOrdyZF-29">
          <mxGeometry width="50" height="50" relative="1" as="geometry">
            <mxPoint x="-1500" y="1890" as="sourcePoint" />
            <mxPoint x="-1450" y="1840" as="targetPoint" />
            <Array as="points">
              <mxPoint x="-1500" y="1810" />
            </Array>
          </mxGeometry>
        </mxCell>
        <mxCell id="WefGPr5P4sL8wsOrdyZF-33" value="" style="rounded=0;whiteSpace=wrap;html=1;" vertex="1" parent="1">
          <mxGeometry x="-413" y="2470" width="1370" height="680" as="geometry" />
        </mxCell>
        <mxCell id="WefGPr5P4sL8wsOrdyZF-34" value="&lt;h1 style=&quot;margin-top: 0px;&quot;&gt;Fotos de museo&lt;/h1&gt;" style="text;html=1;whiteSpace=wrap;overflow=hidden;rounded=0;" vertex="1" parent="1">
          <mxGeometry x="380" y="2700" width="490" height="50" as="geometry" />
        </mxCell>
        <mxCell id="WefGPr5P4sL8wsOrdyZF-35" value="Image button&amp;nbsp;&lt;div&gt;&lt;br&gt;&lt;/div&gt;&lt;div&gt;Abrir modal IlustrationModal&lt;/div&gt;" style="rounded=0;whiteSpace=wrap;html=1;" vertex="1" parent="1">
          <mxGeometry x="-250" y="2630" width="510" height="230" as="geometry" />
        </mxCell>
        <mxCell id="WefGPr5P4sL8wsOrdyZF-36" value="&lt;h1 style=&quot;margin-top: 0px;&quot;&gt;Heading&lt;/h1&gt;&lt;p&gt;Lorem ipsum dolor sit amet, consectetur adipisicing elit, sed do eiusmod tempor incididunt ut labore et dolore magna aliqua.&lt;/p&gt;" style="text;html=1;whiteSpace=wrap;overflow=hidden;rounded=0;" vertex="1" parent="1">
          <mxGeometry x="-150" y="2940" width="900" height="120" as="geometry" />
        </mxCell>
        <mxCell id="WefGPr5P4sL8wsOrdyZF-37" value="" style="rounded=0;whiteSpace=wrap;html=1;" vertex="1" parent="1">
          <mxGeometry x="-1370" y="2590" width="800" height="360" as="geometry" />
        </mxCell>
        <mxCell id="WefGPr5P4sL8wsOrdyZF-38" value="Imagen uno" style="rounded=0;whiteSpace=wrap;html=1;" vertex="1" parent="1">
          <mxGeometry x="-1180" y="2630" width="370" height="90" as="geometry" />
        </mxCell>
        <mxCell id="WefGPr5P4sL8wsOrdyZF-39" value="&lt;h1 style=&quot;margin-top: 0px;&quot;&gt;Heading&lt;/h1&gt;&lt;p&gt;Lorem ipsum dolor sit amet, consectetur adipisicing elit, sed do eiusmod tempor incididunt ut labore et dolore magna aliqua.&lt;/p&gt;" style="text;html=1;whiteSpace=wrap;overflow=hidden;rounded=0;" vertex="1" parent="1">
          <mxGeometry x="-1100" y="2740" width="180" height="120" as="geometry" />
        </mxCell>
        <mxCell id="WefGPr5P4sL8wsOrdyZF-40" value="Carousel" style="text;html=1;align=center;verticalAlign=middle;whiteSpace=wrap;rounded=0;" vertex="1" parent="1">
          <mxGeometry x="-1040" y="2590" width="60" height="30" as="geometry" />
        </mxCell>
      </root>
    </mxGraphModel>
  </diagram>
</mxfile>
